<?xml version="1.0" encoding="UTF-8" standalone="no"?>
<!-- Created with Inkscape (http://www.inkscape.org/) -->

<svg
   width="5.5456481mm"
   height="3.4640894mm"
   viewBox="0 0 5.5456481 3.4640894"
   version="1.1"
   id="svg1"
   xmlns:inkscape="http://www.inkscape.org/namespaces/inkscape"
   xmlns:sodipodi="http://sodipodi.sourceforge.net/DTD/sodipodi-0.dtd"
   xmlns:xlink="http://www.w3.org/1999/xlink"
   xmlns="http://www.w3.org/2000/svg"
   xmlns:svg="http://www.w3.org/2000/svg">
  <sodipodi:namedview
     id="namedview1"
     pagecolor="#505050"
     bordercolor="#eeeeee"
     borderopacity="1"
     inkscape:showpageshadow="0"
     inkscape:pageopacity="0"
     inkscape:pagecheckerboard="0"
     inkscape:deskcolor="#d1d1d1"
     inkscape:document-units="mm" />
  <defs
     id="defs1" />
  <g
     inkscape:label="Layer 1"
     inkscape:groupmode="layer"
     id="layer1"
     transform="translate(-128.06313,-111.49947)">
    <path
       id="path4290"
       style="opacity:0;fill:none;fill-opacity:0.337255;stroke:#ff1234;stroke-width:1.42879;stroke-linecap:round;stroke-linejoin:round;stroke-miterlimit:8.4;stroke-opacity:0.337255"
       d="M 105.83813,-23.084752 A 154.16596,154.59873 0 0 0 -48.327655,131.51408 154.16596,154.59873 0 0 0 105.83813,286.1129 154.16596,154.59873 0 0 0 260.0039,131.51408 154.16596,154.59873 0 0 0 105.83813,-23.084752 Z m 0,68.102301 a 86.254166,86.496294 0 0 1 86.25416,86.496531 86.254166,86.496294 0 0 1 -86.25416,86.49653 86.254166,86.496294 0 0 1 -86.254169,-86.49653 86.254166,86.496294 0 0 1 86.254169,-86.496531 z" />
    <ellipse
       style="opacity:0;fill:none;fill-opacity:0.337255;stroke:#ff1234;stroke-width:1.05197;stroke-linecap:round;stroke-linejoin:round;stroke-miterlimit:8.4;stroke-opacity:0.337255"
       id="path4289"
       cx="105.83813"
       cy="131.51408"
       rx="159.89973"
       ry="159.12192" />
    <path
       style="fill:#000000;stroke-width:0.137248"
       d="m 128.06313,113.23187 v -1.7324 l 0.983,0.002 0.98301,0.002 0.0588,0.0157 c 0.17169,0.0459 0.32983,0.15689 0.44138,0.30979 0.0475,0.0651 0.11467,0.20352 0.13745,0.28317 0.0677,0.23675 0.0472,0.4783 -0.0589,0.69452 -0.0776,0.1581 -0.20076,0.28332 -0.35557,0.36144 l -0.0389,0.0197 0.046,0.0167 c 0.27316,0.0991 0.46908,0.294 0.54782,0.54498 0.075,0.23902 0.0575,0.52967 -0.0427,0.71149 -0.0851,0.15436 -0.20338,0.26721 -0.37052,0.35356 -0.15433,0.0797 -0.29789,0.1213 -0.49033,0.14204 -0.0441,0.005 -0.38653,0.007 -0.95467,0.007 h -0.88587 z m 1.78887,1.14866 c 0.19296,-0.0573 0.32176,-0.23114 0.32224,-0.43498 0,-0.21149 -0.13253,-0.40378 -0.31253,-0.45169 -0.0314,-0.008 -0.13311,-0.0102 -0.58179,-0.0102 l -0.54375,-8e-5 v 0.45223 c 0,0.24874 0.003,0.45452 0.005,0.4573 0.003,0.003 0.24429,0.004 0.53668,0.003 0.48469,-0.002 0.53536,-0.004 0.57412,-0.0151 z m -0.10271,-1.4453 c 0.073,-0.0243 0.12269,-0.0545 0.17423,-0.10621 0.0845,-0.0847 0.11827,-0.1775 0.11753,-0.32314 -0.003,-0.2137 -0.0993,-0.36117 -0.27761,-0.41653 -0.0352,-0.0109 -0.087,-0.0121 -0.53133,-0.0121 h -0.49239 l -0.003,0.43785 -0.003,0.43784 0.48715,-0.002 c 0.449,-0.002 0.49014,-0.003 0.52607,-0.0153 z m 2.42297,2.02435 c -0.23714,-0.0232 -0.44254,-0.0955 -0.62658,-0.22052 -0.0614,-0.0417 -0.0833,-0.0595 -0.1492,-0.12148 -0.0699,-0.0657 -0.11393,-0.11768 -0.1669,-0.19687 -0.10448,-0.15627 -0.16716,-0.3108 -0.20235,-0.49893 -0.0154,-0.0811 -0.0209,-0.30574 -0.0101,-0.39357 0.0548,-0.44473 0.2989,-0.8006 0.6794,-0.99044 0.20807,-0.10381 0.40828,-0.14424 0.67347,-0.13599 0.17894,0.006 0.29416,0.0267 0.43992,0.0805 0.23591,0.0872 0.45704,0.26717 0.59275,0.48242 0.11425,0.18125 0.18137,0.39449 0.20124,0.63927 0.008,0.0945 0.006,0.21875 -0.005,0.25951 l -0.004,0.0168 h -0.95668 -0.95668 l 0.005,0.0407 c 0.0103,0.0977 0.0536,0.21499 0.1093,0.29665 0.0437,0.064 0.0823,0.10456 0.14404,0.15108 0.20605,0.15528 0.4795,0.17538 0.72554,0.0533 0.12276,-0.0609 0.17923,-0.11423 0.25566,-0.24155 0.007,-0.012 0.0249,-0.008 0.27454,0.0611 0.14676,0.0407 0.26683,0.0773 0.26683,0.0814 0,0.0137 -0.0637,0.11938 -0.10232,0.16978 -0.0394,0.0514 -0.14165,0.15575 -0.19169,0.19571 -0.18642,0.14883 -0.42428,0.24232 -0.68265,0.26832 -0.0676,0.007 -0.25432,0.008 -0.31276,0.003 z m 0.78219,-1.51321 c -0.0278,-0.16648 -0.0597,-0.24851 -0.13443,-0.34538 -0.12137,-0.15735 -0.2979,-0.24162 -0.50607,-0.24162 -0.12224,0 -0.19897,0.0177 -0.29797,0.0687 -0.1764,0.0909 -0.30047,0.26368 -0.33611,0.46805 -0.006,0.0335 -0.0106,0.0637 -0.0106,0.0671 0,0.003 0.28435,0.006 0.64455,0.006 h 0.64453 z m -0.64947,-1.37089 -0.82725,-0.002 0.003,-0.20365 0.003,-0.20366 0.82715,-0.002 0.82714,-0.002 v 0.20902 c 0,0.11497 -0.003,0.20825 -0.003,0.20729 -0.003,-0.001 -0.37404,-0.003 -0.82902,-0.004 z"
       id="path4284" />
    <text
       xml:space="preserve"
       style="font-style:normal;font-variant:normal;font-weight:normal;font-stretch:normal;font-size:5.36223px;line-height:0.95;font-family:Poppins;-inkscape-font-specification:'Poppins, Normal';font-variant-ligatures:normal;font-variant-caps:normal;font-variant-numeric:normal;font-variant-east-asian:normal;word-spacing:0px;stroke-width:0.0794427"
       id="text4288"><textPath
         xlink:href="#path4288"
         id="textPath4288"
         style="stroke-width:0.0794427"><tspan
           id="tspan4288"
           style="font-style:normal;font-variant:normal;font-weight:normal;font-stretch:normal;font-size:5.36223px;font-family:Poppins;-inkscape-font-specification:'Poppins, Normal';font-variant-ligatures:normal;font-variant-caps:normal;font-variant-numeric:normal;font-variant-east-asian:normal;stroke-width:0.0794427">logo design  |  illustrations  |  motion graphics  |  ui/ux design  |  package design |  animations  |  branding design  |  icon desgin  |  print design  |  infographic desgin |  and more.  |</tspan></textPath></text>
    <path
       id="circle4282"
       style="opacity:0;fill:none;fill-opacity:0.337255;stroke:#ff1234;stroke-width:1.37669;stroke-linecap:round;stroke-linejoin:round;stroke-miterlimit:8.4;stroke-opacity:0.337255"
       d="m 79.147109,150.78037 a 33.178321,33.178321 0 0 0 46.072041,7.75992 33.178321,33.178321 0 0 0 8.10199,-46.01311 z"
       inkscape:transform-center-x="-12.686583"
       inkscape:transform-center-y="28.247578" />
    <text
       xml:space="preserve"
       style="font-style:normal;font-variant:normal;font-weight:normal;font-stretch:normal;font-size:4.9389px;line-height:0.95;font-family:Poppins;-inkscape-font-specification:'Poppins, Normal';font-variant-ligatures:normal;font-variant-caps:normal;font-variant-numeric:normal;font-variant-east-asian:normal;word-spacing:0px;stroke-width:0.0497705"
       id="text4279"
       transform="rotate(-81.74517,105.87429,131.85266)"><textPath
         xlink:href="#circle4279"
         id="textPath4281"
         style="stroke-width:0.0497705"><tspan
           id="tspan4280"
           style="font-style:normal;font-variant:normal;font-weight:normal;font-stretch:normal;font-size:4.9389px;font-family:Poppins;-inkscape-font-specification:'Poppins, Normal';font-variant-ligatures:normal;font-variant-caps:normal;font-variant-numeric:normal;font-variant-east-asian:normal;stroke-width:0.0497705">We craft and execute strategic, visually compelling solutions enhancing brands and communication effectively.</tspan></textPath></text>
    <circle
       style="opacity:0;fill:none;fill-opacity:0.337255;stroke:#ff1234;stroke-width:1.32292;stroke-linecap:round;stroke-linejoin:round;stroke-miterlimit:8.4;stroke-opacity:0.337255"
       id="path4288"
       cx="105.40414"
       cy="132.19693"
       r="75.803123" />
    <circle
       style="opacity:0;fill:none;stroke:#ff1234;stroke-width:1.2168;stroke-linecap:round;stroke-linejoin:round;stroke-miterlimit:8.4;stroke-opacity:0.337255"
       id="circle4279"
       cx="105.83813"
       cy="131.51408"
       r="45.508331" />
    <circle
       style="opacity:0;mix-blend-mode:multiply;fill:none;fill-opacity:0.337255;stroke:#ff1234;stroke-width:1.37669;stroke-linecap:round;stroke-linejoin:round;stroke-miterlimit:8.4;stroke-opacity:0.337255"
       id="path4282"
       cx="105.83813"
       cy="131.51408"
       r="33.178322" />
    <text
       xml:space="preserve"
       style="font-style:normal;font-variant:normal;font-weight:normal;font-stretch:normal;font-size:4.9389px;line-height:0.95;font-family:Poppins;-inkscape-font-specification:'Poppins, Normal';font-variant-ligatures:normal;font-variant-caps:normal;font-variant-numeric:normal;font-variant-east-asian:normal;word-spacing:0px;stroke-width:0.115538"
       id="text4282"
       inkscape:export-filename="email.svg"
       inkscape:export-xdpi="300"
       inkscape:export-ydpi="300"><textPath
         xlink:href="#circle4282"
         id="textPath4282"
         style="stroke-width:0.115538"><tspan
           id="tspan4282"
           style="font-style:normal;font-variant:normal;font-weight:normal;font-stretch:normal;font-size:4.9389px;font-family:Poppins;-inkscape-font-specification:'Poppins, Normal';font-variant-ligatures:normal;font-variant-caps:normal;font-variant-numeric:normal;font-variant-east-asian:normal;stroke-width:0.115538">awxcreatives@gmail.com</tspan></textPath></text>
    <text
       xml:space="preserve"
       style="font-style:normal;font-variant:normal;font-weight:normal;font-stretch:normal;font-size:4.9389px;line-height:0.95;font-family:Poppins;-inkscape-font-specification:'Poppins, Normal';font-variant-ligatures:normal;font-variant-caps:normal;font-variant-numeric:normal;font-variant-east-asian:normal;word-spacing:0px;stroke-width:0.264583"
       id="text4289"><textPath
         xlink:href="#path4289"
         id="textPath4289"
         style="stroke-width:0.264583"><tspan
           id="tspan4289"
           style="stroke-width:0.264583">projects  #  projects  #  projects  #  projects  #  projects  #  projects  #  projects  #  projects  #  projects  #  projects  #  projects  #  projects  #  projects  #  projects  #  projects  #  projects  #  projects  #  projects  #  projects  #  projects  #  projects  #  projects  #  projects  #  projects  #  projects  #  projects  #  projects  #  projects  #  projects  #  projects  #  projects  #  projects  #  projects  #  projects  #   </tspan></textPath></text>
  </g>
</svg>
