<?xml version="1.0" encoding="UTF-8" standalone="no"?>
<!-- Created with Inkscape (http://www.inkscape.org/) -->

<svg
   width="5.1560564mm"
   height="5.1573563mm"
   viewBox="0 0 5.1560564 5.1573563"
   version="1.1"
   id="svg1"
   xmlns:inkscape="http://www.inkscape.org/namespaces/inkscape"
   xmlns:sodipodi="http://sodipodi.sourceforge.net/DTD/sodipodi-0.dtd"
   xmlns:xlink="http://www.w3.org/1999/xlink"
   xmlns="http://www.w3.org/2000/svg"
   xmlns:svg="http://www.w3.org/2000/svg">
  <sodipodi:namedview
     id="namedview1"
     pagecolor="#505050"
     bordercolor="#eeeeee"
     borderopacity="1"
     inkscape:showpageshadow="0"
     inkscape:pageopacity="0"
     inkscape:pagecheckerboard="0"
     inkscape:deskcolor="#d1d1d1"
     inkscape:document-units="mm" />
  <defs
     id="defs1" />
  <g
     inkscape:label="Layer 1"
     inkscape:groupmode="layer"
     id="layer1"
     transform="translate(-132.63991,-140.57707)">
    <path
       id="path4290"
       style="opacity:0;fill:none;fill-opacity:0.337255;stroke:#ff1234;stroke-width:1.42879;stroke-linecap:round;stroke-linejoin:round;stroke-miterlimit:8.4;stroke-opacity:0.337255"
       d="M 105.83813,-23.084752 A 154.16596,154.59873 0 0 0 -48.327655,131.51408 154.16596,154.59873 0 0 0 105.83813,286.1129 154.16596,154.59873 0 0 0 260.0039,131.51408 154.16596,154.59873 0 0 0 105.83813,-23.084752 Z m 0,68.102301 a 86.254166,86.496294 0 0 1 86.25416,86.496531 86.254166,86.496294 0 0 1 -86.25416,86.49653 86.254166,86.496294 0 0 1 -86.254169,-86.49653 86.254166,86.496294 0 0 1 86.254169,-86.496531 z" />
    <ellipse
       style="opacity:0;fill:none;fill-opacity:0.337255;stroke:#ff1234;stroke-width:1.05197;stroke-linecap:round;stroke-linejoin:round;stroke-miterlimit:8.4;stroke-opacity:0.337255"
       id="path4289"
       cx="105.83813"
       cy="131.51408"
       rx="159.89973"
       ry="159.12192" />
    <text
       xml:space="preserve"
       style="font-style:normal;font-variant:normal;font-weight:normal;font-stretch:normal;font-size:5.36223px;line-height:0.95;font-family:Poppins;-inkscape-font-specification:'Poppins, Normal';font-variant-ligatures:normal;font-variant-caps:normal;font-variant-numeric:normal;font-variant-east-asian:normal;word-spacing:0px;stroke-width:0.0794427"
       id="text4288"><textPath
         xlink:href="#path4288"
         id="textPath4288"
         style="stroke-width:0.0794427"><tspan
           id="tspan4288"
           style="font-style:normal;font-variant:normal;font-weight:normal;font-stretch:normal;font-size:5.36223px;font-family:Poppins;-inkscape-font-specification:'Poppins, Normal';font-variant-ligatures:normal;font-variant-caps:normal;font-variant-numeric:normal;font-variant-east-asian:normal;stroke-width:0.0794427">logo design  |  illustrations  |  motion graphics  |  ui/ux design  |  package design |  animations  |  branding design  |  icon desgin  |  print design  |  infographic desgin |  and more.  |</tspan></textPath></text>
    <path
       id="circle4282"
       style="opacity:0;fill:none;fill-opacity:0.337255;stroke:#ff1234;stroke-width:1.37669;stroke-linecap:round;stroke-linejoin:round;stroke-miterlimit:8.4;stroke-opacity:0.337255"
       d="m 79.147109,150.78037 a 33.178321,33.178321 0 0 0 46.072041,7.75992 33.178321,33.178321 0 0 0 8.10199,-46.01311 z"
       inkscape:transform-center-x="-12.686583"
       inkscape:transform-center-y="28.247578" />
    <text
       xml:space="preserve"
       style="font-style:normal;font-variant:normal;font-weight:normal;font-stretch:normal;font-size:4.9389px;line-height:0.95;font-family:Poppins;-inkscape-font-specification:'Poppins, Normal';font-variant-ligatures:normal;font-variant-caps:normal;font-variant-numeric:normal;font-variant-east-asian:normal;word-spacing:0px;stroke-width:0.0497705"
       id="text4279"
       transform="rotate(-81.74517,105.87429,131.85266)"><textPath
         xlink:href="#circle4279"
         id="textPath4281"
         style="stroke-width:0.0497705"><tspan
           id="tspan4280"
           style="font-style:normal;font-variant:normal;font-weight:normal;font-stretch:normal;font-size:4.9389px;font-family:Poppins;-inkscape-font-specification:'Poppins, Normal';font-variant-ligatures:normal;font-variant-caps:normal;font-variant-numeric:normal;font-variant-east-asian:normal;stroke-width:0.0497705">We craft and execute strategic, visually compelling solutions enhancing brands and communication effectively.</tspan></textPath></text>
    <circle
       style="opacity:0;fill:none;fill-opacity:0.337255;stroke:#ff1234;stroke-width:1.32292;stroke-linecap:round;stroke-linejoin:round;stroke-miterlimit:8.4;stroke-opacity:0.337255"
       id="path4288"
       cx="105.40414"
       cy="132.19693"
       r="75.803123" />
    <circle
       style="opacity:0;fill:none;stroke:#ff1234;stroke-width:1.2168;stroke-linecap:round;stroke-linejoin:round;stroke-miterlimit:8.4;stroke-opacity:0.337255"
       id="circle4279"
       cx="105.83813"
       cy="131.51408"
       r="45.508331" />
    <circle
       style="opacity:0;mix-blend-mode:multiply;fill:none;fill-opacity:0.337255;stroke:#ff1234;stroke-width:1.37669;stroke-linecap:round;stroke-linejoin:round;stroke-miterlimit:8.4;stroke-opacity:0.337255"
       id="path4282"
       cx="105.83813"
       cy="131.51408"
       r="33.178322" />
    <text
       xml:space="preserve"
       style="font-style:normal;font-variant:normal;font-weight:normal;font-stretch:normal;font-size:4.9389px;line-height:0.95;font-family:Poppins;-inkscape-font-specification:'Poppins, Normal';font-variant-ligatures:normal;font-variant-caps:normal;font-variant-numeric:normal;font-variant-east-asian:normal;word-spacing:0px;stroke-width:0.115538"
       id="text4282"
       inkscape:export-filename="email.svg"
       inkscape:export-xdpi="300"
       inkscape:export-ydpi="300"><textPath
         xlink:href="#circle4282"
         id="textPath4282"
         style="stroke-width:0.115538"><tspan
           id="tspan4282"
           style="font-style:normal;font-variant:normal;font-weight:normal;font-stretch:normal;font-size:4.9389px;font-family:Poppins;-inkscape-font-specification:'Poppins, Normal';font-variant-ligatures:normal;font-variant-caps:normal;font-variant-numeric:normal;font-variant-east-asian:normal;stroke-width:0.115538">awxcreatives@gmail.com</tspan></textPath></text>
    <path
       style="fill:#000000;stroke-width:0.0959731"
       d="m 134.98113,145.72356 c -0.38851,-0.037 -0.77718,-0.16655 -1.10736,-0.36897 -0.332,-0.20353 -0.6518,-0.52334 -0.85532,-0.85531 -0.46381,-0.75654 -0.50403,-1.70214 -0.10617,-2.49689 0.20931,-0.41815 0.56147,-0.80155 0.96149,-1.04678 0.75653,-0.46381 1.70212,-0.50402 2.49688,-0.10619 0.41814,0.20932 0.80152,0.56148 1.04677,0.9615 0.46381,0.75653 0.50403,1.70213 0.1062,2.49688 -0.20934,0.41815 -0.5615,0.80155 -0.96149,1.04679 -0.46829,0.28708 -1.04011,0.42054 -1.581,0.36897 z m 0.58449,-0.43177 c 0.15203,-0.0259 0.30494,-0.0681 0.44183,-0.12199 l 0.10642,-0.0419 -0.006,-0.0316 c -0.0813,-0.45307 -0.20016,-0.89729 -0.35523,-1.32752 -0.0756,-0.20962 -0.0718,-0.20056 -0.084,-0.20056 -0.0206,0 -0.21704,0.0738 -0.33864,0.12729 -0.49234,0.21638 -1.00251,0.60164 -1.37194,1.03598 l -0.0937,0.11017 0.0291,0.024 c 0.0623,0.0513 0.2553,0.17365 0.34385,0.21801 0.27385,0.13714 0.49205,0.19714 0.84418,0.23214 0.0937,0.009 0.36793,-0.004 0.48374,-0.0241 z m 1.02146,-0.46311 c 0.36557,-0.2932 0.64598,-0.74923 0.74641,-1.21389 0.0119,-0.0548 0.0193,-0.10181 0.0167,-0.1045 -0.0222,-0.0222 -0.42317,-0.0779 -0.63063,-0.0876 -0.21411,-0.01 -0.62479,0.0236 -0.62479,0.0511 0,0.007 0.0246,0.0823 0.0548,0.16706 0.1212,0.341 0.23479,0.74187 0.30422,1.07374 0.0212,0.10116 0.0402,0.18392 0.0424,0.18392 0.003,0 0.0431,-0.0314 0.091,-0.0698 z m -2.95535,-0.35092 c 0.19767,-0.22839 0.38497,-0.41188 0.58854,-0.57659 0.37693,-0.30495 0.77391,-0.53212 1.18914,-0.68043 0.0582,-0.0208 0.10695,-0.0388 0.10833,-0.04 0.003,-0.003 -0.0952,-0.22059 -0.15656,-0.34537 -0.0279,-0.0566 -0.0526,-0.1088 -0.055,-0.11589 -0.003,-0.01 -0.0293,-0.005 -0.10421,0.0197 -0.3243,0.1057 -0.72999,0.19766 -1.09792,0.24886 -0.3161,0.044 -0.71469,0.0763 -0.94075,0.0763 h -0.1151 l 0.007,0.15347 c 0.0109,0.24122 0.0414,0.41245 0.11174,0.62753 0.0398,0.12153 0.15054,0.35557 0.21703,0.45853 0.0546,0.0845 0.17299,0.24185 0.18201,0.24185 0.004,0 0.0334,-0.0306 0.0658,-0.068 z m 3.74608,-1.46123 c -0.0127,-0.19632 -0.0733,-0.47153 -0.14129,-0.64244 -0.0734,-0.18475 -0.18129,-0.3772 -0.2925,-0.52182 l -0.0448,-0.0583 -0.0369,0.0311 c -0.12769,0.10737 -0.29411,0.23765 -0.37555,0.29401 -0.19923,0.13786 -0.48257,0.29766 -0.69437,0.3916 -0.0527,0.0234 -0.0969,0.0434 -0.0983,0.0445 -0.003,0.001 0.0306,0.072 0.0712,0.15737 0.0406,0.0854 0.0939,0.20191 0.11848,0.2589 0.0442,0.10235 0.0451,0.10355 0.075,0.0983 0.26164,-0.0457 0.4532,-0.0593 0.74546,-0.053 0.2395,0.005 0.39566,0.0197 0.55626,0.0517 0.0378,0.008 0.0807,0.0142 0.0954,0.0149 l 0.0265,0.001 z m -3.76219,-0.39089 c 0.38087,-0.0331 0.70533,-0.0848 1.04301,-0.1662 0.16563,-0.0399 0.42522,-0.11416 0.43561,-0.12457 0.008,-0.008 -0.14869,-0.27863 -0.30231,-0.52008 -0.13893,-0.2184 -0.24379,-0.37248 -0.36817,-0.54093 l -0.0757,-0.10257 -0.10671,0.0536 c -0.41754,0.20968 -0.75798,0.55621 -0.96901,0.98638 -0.0585,0.11928 -0.13023,0.31102 -0.15473,0.41372 l -0.007,0.0292 0.16936,-0.007 c 0.0932,-0.004 0.24419,-0.0135 0.33563,-0.0215 z m 2.11124,-0.54343 c 0.32533,-0.15762 0.58023,-0.32443 0.85043,-0.55648 l 0.0341,-0.0293 -0.0896,-0.0663 c -0.3083,-0.22831 -0.61715,-0.35798 -0.995,-0.4178 -0.14917,-0.0236 -0.47103,-0.0238 -0.62132,-2.6e-4 -0.0637,0.01 -0.11975,0.0219 -0.12448,0.0265 -0.005,0.005 0.009,0.0327 0.0311,0.0623 0.16547,0.22438 0.4165,0.61412 0.57668,0.89535 0.1128,0.19808 0.10843,0.19179 0.12888,0.1848 0.01,-0.003 0.1038,-0.0478 0.2091,-0.0988 z"
       id="path4287" />
    <text
       xml:space="preserve"
       style="font-style:normal;font-variant:normal;font-weight:normal;font-stretch:normal;font-size:4.9389px;line-height:0.95;font-family:Poppins;-inkscape-font-specification:'Poppins, Normal';font-variant-ligatures:normal;font-variant-caps:normal;font-variant-numeric:normal;font-variant-east-asian:normal;word-spacing:0px;stroke-width:0.264583"
       id="text4289"><textPath
         xlink:href="#path4289"
         id="textPath4289"
         style="stroke-width:0.264583"><tspan
           id="tspan4289"
           style="stroke-width:0.264583">projects  #  projects  #  projects  #  projects  #  projects  #  projects  #  projects  #  projects  #  projects  #  projects  #  projects  #  projects  #  projects  #  projects  #  projects  #  projects  #  projects  #  projects  #  projects  #  projects  #  projects  #  projects  #  projects  #  projects  #  projects  #  projects  #  projects  #  projects  #  projects  #  projects  #  projects  #  projects  #  projects  #  projects  #   </tspan></textPath></text>
  </g>
</svg>
