<?xml version="1.0" encoding="UTF-8" standalone="no"?>
<!-- Created with Inkscape (http://www.inkscape.org/) -->

<svg
   width="4.9836912mm"
   height="4.9943333mm"
   viewBox="0 0 4.9836912 4.9943333"
   version="1.1"
   id="svg1"
   xmlns:inkscape="http://www.inkscape.org/namespaces/inkscape"
   xmlns:sodipodi="http://sodipodi.sourceforge.net/DTD/sodipodi-0.dtd"
   xmlns:xlink="http://www.w3.org/1999/xlink"
   xmlns="http://www.w3.org/2000/svg"
   xmlns:svg="http://www.w3.org/2000/svg">
  <sodipodi:namedview
     id="namedview1"
     pagecolor="#505050"
     bordercolor="#eeeeee"
     borderopacity="1"
     inkscape:showpageshadow="0"
     inkscape:pageopacity="0"
     inkscape:pagecheckerboard="0"
     inkscape:deskcolor="#d1d1d1"
     inkscape:document-units="mm" />
  <defs
     id="defs1" />
  <g
     inkscape:label="Layer 1"
     inkscape:groupmode="layer"
     id="layer1"
     transform="translate(-75.67563,-140.65853)">
    <path
       id="path4290"
       style="opacity:0;fill:none;fill-opacity:0.337255;stroke:#ff1234;stroke-width:1.42879;stroke-linecap:round;stroke-linejoin:round;stroke-miterlimit:8.4;stroke-opacity:0.337255"
       d="M 105.83813,-23.084752 A 154.16596,154.59873 0 0 0 -48.327655,131.51408 154.16596,154.59873 0 0 0 105.83813,286.1129 154.16596,154.59873 0 0 0 260.0039,131.51408 154.16596,154.59873 0 0 0 105.83813,-23.084752 Z m 0,68.102301 a 86.254166,86.496294 0 0 1 86.25416,86.496531 86.254166,86.496294 0 0 1 -86.25416,86.49653 86.254166,86.496294 0 0 1 -86.254169,-86.49653 86.254166,86.496294 0 0 1 86.254169,-86.496531 z" />
    <ellipse
       style="opacity:0;fill:none;fill-opacity:0.337255;stroke:#ff1234;stroke-width:1.05197;stroke-linecap:round;stroke-linejoin:round;stroke-miterlimit:8.4;stroke-opacity:0.337255"
       id="path4289"
       cx="105.83813"
       cy="131.51408"
       rx="159.89973"
       ry="159.12192" />
    <text
       xml:space="preserve"
       style="font-style:normal;font-variant:normal;font-weight:normal;font-stretch:normal;font-size:5.36223px;line-height:0.95;font-family:Poppins;-inkscape-font-specification:'Poppins, Normal';font-variant-ligatures:normal;font-variant-caps:normal;font-variant-numeric:normal;font-variant-east-asian:normal;word-spacing:0px;stroke-width:0.0794427"
       id="text4288"><textPath
         xlink:href="#path4288"
         id="textPath4288"
         style="stroke-width:0.0794427"><tspan
           id="tspan4288"
           style="font-style:normal;font-variant:normal;font-weight:normal;font-stretch:normal;font-size:5.36223px;font-family:Poppins;-inkscape-font-specification:'Poppins, Normal';font-variant-ligatures:normal;font-variant-caps:normal;font-variant-numeric:normal;font-variant-east-asian:normal;stroke-width:0.0794427">logo design  |  illustrations  |  motion graphics  |  ui/ux design  |  package design |  animations  |  branding design  |  icon desgin  |  print design  |  infographic desgin |  and more.  |</tspan></textPath></text>
    <path
       id="circle4282"
       style="opacity:0;fill:none;fill-opacity:0.337255;stroke:#ff1234;stroke-width:1.37669;stroke-linecap:round;stroke-linejoin:round;stroke-miterlimit:8.4;stroke-opacity:0.337255"
       d="m 79.147109,150.78037 a 33.178321,33.178321 0 0 0 46.072041,7.75992 33.178321,33.178321 0 0 0 8.10199,-46.01311 z"
       inkscape:transform-center-x="-12.686583"
       inkscape:transform-center-y="28.247578" />
    <text
       xml:space="preserve"
       style="font-style:normal;font-variant:normal;font-weight:normal;font-stretch:normal;font-size:4.9389px;line-height:0.95;font-family:Poppins;-inkscape-font-specification:'Poppins, Normal';font-variant-ligatures:normal;font-variant-caps:normal;font-variant-numeric:normal;font-variant-east-asian:normal;word-spacing:0px;stroke-width:0.0497705"
       id="text4279"
       transform="rotate(-81.74517,105.87429,131.85266)"><textPath
         xlink:href="#circle4279"
         id="textPath4281"
         style="stroke-width:0.0497705"><tspan
           id="tspan4280"
           style="font-style:normal;font-variant:normal;font-weight:normal;font-stretch:normal;font-size:4.9389px;font-family:Poppins;-inkscape-font-specification:'Poppins, Normal';font-variant-ligatures:normal;font-variant-caps:normal;font-variant-numeric:normal;font-variant-east-asian:normal;stroke-width:0.0497705">We craft and execute strategic, visually compelling solutions enhancing brands and communication effectively.</tspan></textPath></text>
    <circle
       style="opacity:0;fill:none;fill-opacity:0.337255;stroke:#ff1234;stroke-width:1.32292;stroke-linecap:round;stroke-linejoin:round;stroke-miterlimit:8.4;stroke-opacity:0.337255"
       id="path4288"
       cx="105.40414"
       cy="132.19693"
       r="75.803123" />
    <circle
       style="opacity:0;fill:none;stroke:#ff1234;stroke-width:1.2168;stroke-linecap:round;stroke-linejoin:round;stroke-miterlimit:8.4;stroke-opacity:0.337255"
       id="circle4279"
       cx="105.83813"
       cy="131.51408"
       r="45.508331" />
    <circle
       style="opacity:0;mix-blend-mode:multiply;fill:none;fill-opacity:0.337255;stroke:#ff1234;stroke-width:1.37669;stroke-linecap:round;stroke-linejoin:round;stroke-miterlimit:8.4;stroke-opacity:0.337255"
       id="path4282"
       cx="105.83813"
       cy="131.51408"
       r="33.178322" />
    <text
       xml:space="preserve"
       style="font-style:normal;font-variant:normal;font-weight:normal;font-stretch:normal;font-size:4.9389px;line-height:0.95;font-family:Poppins;-inkscape-font-specification:'Poppins, Normal';font-variant-ligatures:normal;font-variant-caps:normal;font-variant-numeric:normal;font-variant-east-asian:normal;word-spacing:0px;stroke-width:0.115538"
       id="text4282"
       inkscape:export-filename="email.svg"
       inkscape:export-xdpi="300"
       inkscape:export-ydpi="300"><textPath
         xlink:href="#circle4282"
         id="textPath4282"
         style="stroke-width:0.115538"><tspan
           id="tspan4282"
           style="font-style:normal;font-variant:normal;font-weight:normal;font-stretch:normal;font-size:4.9389px;font-family:Poppins;-inkscape-font-specification:'Poppins, Normal';font-variant-ligatures:normal;font-variant-caps:normal;font-variant-numeric:normal;font-variant-east-asian:normal;stroke-width:0.115538">awxcreatives@gmail.com</tspan></textPath></text>
    <path
       style="fill:#000000;stroke-width:0.118474"
       d="m 76.628887,145.59122 c -0.383239,-0.13904 -0.695942,-0.43138 -0.87565,-0.81863 -0.07743,-0.16685 -0.07761,-0.17063 -0.07761,-1.62221 v -1.45497 l 0.11131,-0.22765 c 0.144135,-0.29478 0.403138,-0.55378 0.697918,-0.69791 l 0.22765,-0.11132 h 1.454971 1.45497 l 0.22765,0.11132 c 0.29478,0.14413 0.553783,0.40313 0.697918,0.69791 l 0.11131,0.22765 v 1.45497 1.45497 l -0.11131,0.22765 c -0.144135,0.29478 -0.403138,0.55378 -0.697918,0.69792 l -0.22765,0.11131 -1.4048,0.008 c -1.330957,0.007 -1.414468,0.004 -1.588759,-0.0589 z m 3.03444,-0.45928 c 0.221488,-0.11835 0.366678,-0.26431 0.467854,-0.47034 l 0.09332,-0.19004 v -1.30446 c 0,-1.30313 -8e-5,-1.30463 -0.0798,-1.48104 -0.09815,-0.2172 -0.348372,-0.44999 -0.561856,-0.52274 -0.232424,-0.0792 -2.59832,-0.0792 -2.830743,0 -0.213482,0.0728 -0.463703,0.30554 -0.561856,0.52274 -0.07966,0.17628 -0.0798,0.17882 -0.0798,1.46432 0,0.97217 0.01066,1.31782 0.04353,1.41052 0.063,0.1777 0.220339,0.38118 0.372721,0.48202 0.270359,0.17892 0.284721,0.18038 1.690944,0.17213 1.282523,-0.008 1.306833,-0.009 1.445681,-0.0831 z m -1.936917,-0.73999 c -0.23808,-0.0954 -0.377325,-0.19179 -0.542385,-0.37538 -0.221457,-0.24631 -0.301916,-0.47635 -0.303221,-0.86692 -0.0011,-0.29318 0.0076,-0.33611 0.108233,-0.54047 0.140304,-0.28496 0.430962,-0.56089 0.700651,-0.66514 0.269743,-0.10427 0.685832,-0.10427 0.955572,0 0.26969,0.10425 0.560351,0.38018 0.700651,0.66514 0.100616,0.20436 0.109212,0.24729 0.108233,0.54047 -7.93e-4,0.25184 -0.01709,0.35871 -0.07761,0.51069 -0.106651,0.26777 -0.357241,0.53199 -0.633794,0.66826 -0.197535,0.0973 -0.257669,0.11044 -0.540903,0.11784 -0.248317,0.006 -0.353267,-0.006 -0.475422,-0.0545 z m 0.652026,-0.40734 c 0.363061,-0.0917 0.625517,-0.43426 0.624903,-0.81571 -5.29e-4,-0.45033 -0.309983,-0.79964 -0.747646,-0.84447 -0.353311,-0.0362 -0.671145,0.13788 -0.832429,0.45589 -0.239488,0.47223 -0.0024,1.03534 0.503134,1.19532 0.159766,0.0506 0.278048,0.0529 0.452038,0.009 z m 0.987502,-1.92226 c -0.180174,-0.0979 -0.192829,-0.37803 -0.02246,-0.49736 0.306716,-0.21483 0.646383,0.22097 0.36003,0.46192 -0.11548,0.0972 -0.206328,0.10671 -0.337564,0.0354 z"
       id="path4283" />
    <text
       xml:space="preserve"
       style="font-style:normal;font-variant:normal;font-weight:normal;font-stretch:normal;font-size:4.9389px;line-height:0.95;font-family:Poppins;-inkscape-font-specification:'Poppins, Normal';font-variant-ligatures:normal;font-variant-caps:normal;font-variant-numeric:normal;font-variant-east-asian:normal;word-spacing:0px;stroke-width:0.264583"
       id="text4289"><textPath
         xlink:href="#path4289"
         id="textPath4289"
         style="stroke-width:0.264583"><tspan
           id="tspan4289"
           style="stroke-width:0.264583">projects  #  projects  #  projects  #  projects  #  projects  #  projects  #  projects  #  projects  #  projects  #  projects  #  projects  #  projects  #  projects  #  projects  #  projects  #  projects  #  projects  #  projects  #  projects  #  projects  #  projects  #  projects  #  projects  #  projects  #  projects  #  projects  #  projects  #  projects  #  projects  #  projects  #  projects  #  projects  #  projects  #  projects  #   </tspan></textPath></text>
  </g>
</svg>
