<?xml version="1.0" encoding="UTF-8" standalone="no"?>
<!-- Created with Inkscape (http://www.inkscape.org/) -->

<svg
   width="3.9343529mm"
   height="3.9468198mm"
   viewBox="0 0 3.9343529 3.9468198"
   version="1.1"
   id="svg1"
   xmlns:inkscape="http://www.inkscape.org/namespaces/inkscape"
   xmlns:sodipodi="http://sodipodi.sourceforge.net/DTD/sodipodi-0.dtd"
   xmlns:xlink="http://www.w3.org/1999/xlink"
   xmlns="http://www.w3.org/2000/svg"
   xmlns:svg="http://www.w3.org/2000/svg">
  <sodipodi:namedview
     id="namedview1"
     pagecolor="#505050"
     bordercolor="#eeeeee"
     borderopacity="1"
     inkscape:showpageshadow="0"
     inkscape:pageopacity="0"
     inkscape:pagecheckerboard="0"
     inkscape:deskcolor="#d1d1d1"
     inkscape:document-units="mm" />
  <defs
     id="defs1" />
  <g
     inkscape:label="Layer 1"
     inkscape:groupmode="layer"
     id="layer1"
     transform="translate(-78.692171,-111.47083)">
    <path
       id="path4290"
       style="opacity:0;fill:none;fill-opacity:0.337255;stroke:#ff1234;stroke-width:1.42879;stroke-linecap:round;stroke-linejoin:round;stroke-miterlimit:8.4;stroke-opacity:0.337255"
       d="M 105.83813,-23.084752 A 154.16596,154.59873 0 0 0 -48.327655,131.51408 154.16596,154.59873 0 0 0 105.83813,286.1129 154.16596,154.59873 0 0 0 260.0039,131.51408 154.16596,154.59873 0 0 0 105.83813,-23.084752 Z m 0,68.102301 a 86.254166,86.496294 0 0 1 86.25416,86.496531 86.254166,86.496294 0 0 1 -86.25416,86.49653 86.254166,86.496294 0 0 1 -86.254169,-86.49653 86.254166,86.496294 0 0 1 86.254169,-86.496531 z" />
    <ellipse
       style="opacity:0;fill:none;fill-opacity:0.337255;stroke:#ff1234;stroke-width:1.05197;stroke-linecap:round;stroke-linejoin:round;stroke-miterlimit:8.4;stroke-opacity:0.337255"
       id="path4289"
       cx="105.83813"
       cy="131.51408"
       rx="159.89973"
       ry="159.12192" />
    <text
       xml:space="preserve"
       style="font-style:normal;font-variant:normal;font-weight:normal;font-stretch:normal;font-size:5.36223px;line-height:0.95;font-family:Poppins;-inkscape-font-specification:'Poppins, Normal';font-variant-ligatures:normal;font-variant-caps:normal;font-variant-numeric:normal;font-variant-east-asian:normal;word-spacing:0px;stroke-width:0.0794427"
       id="text4288"><textPath
         xlink:href="#path4288"
         id="textPath4288"
         style="stroke-width:0.0794427"><tspan
           id="tspan4288"
           style="font-style:normal;font-variant:normal;font-weight:normal;font-stretch:normal;font-size:5.36223px;font-family:Poppins;-inkscape-font-specification:'Poppins, Normal';font-variant-ligatures:normal;font-variant-caps:normal;font-variant-numeric:normal;font-variant-east-asian:normal;stroke-width:0.0794427">logo design  |  illustrations  |  motion graphics  |  ui/ux design  |  package design |  animations  |  branding design  |  icon desgin  |  print design  |  infographic desgin |  and more.  |</tspan></textPath></text>
    <path
       id="circle4282"
       style="opacity:0;fill:none;fill-opacity:0.337255;stroke:#ff1234;stroke-width:1.37669;stroke-linecap:round;stroke-linejoin:round;stroke-miterlimit:8.4;stroke-opacity:0.337255"
       d="m 79.147109,150.78037 a 33.178321,33.178321 0 0 0 46.072041,7.75992 33.178321,33.178321 0 0 0 8.10199,-46.01311 z"
       inkscape:transform-center-x="-12.686583"
       inkscape:transform-center-y="28.247578" />
    <text
       xml:space="preserve"
       style="font-style:normal;font-variant:normal;font-weight:normal;font-stretch:normal;font-size:4.9389px;line-height:0.95;font-family:Poppins;-inkscape-font-specification:'Poppins, Normal';font-variant-ligatures:normal;font-variant-caps:normal;font-variant-numeric:normal;font-variant-east-asian:normal;word-spacing:0px;stroke-width:0.0497705"
       id="text4279"
       transform="rotate(-81.74517,105.87429,131.85266)"><textPath
         xlink:href="#circle4279"
         id="textPath4281"
         style="stroke-width:0.0497705"><tspan
           id="tspan4280"
           style="font-style:normal;font-variant:normal;font-weight:normal;font-stretch:normal;font-size:4.9389px;font-family:Poppins;-inkscape-font-specification:'Poppins, Normal';font-variant-ligatures:normal;font-variant-caps:normal;font-variant-numeric:normal;font-variant-east-asian:normal;stroke-width:0.0497705">We craft and execute strategic, visually compelling solutions enhancing brands and communication effectively.</tspan></textPath></text>
    <circle
       style="opacity:0;fill:none;fill-opacity:0.337255;stroke:#ff1234;stroke-width:1.32292;stroke-linecap:round;stroke-linejoin:round;stroke-miterlimit:8.4;stroke-opacity:0.337255"
       id="path4288"
       cx="105.40414"
       cy="132.19693"
       r="75.803123" />
    <circle
       style="opacity:0;fill:none;stroke:#ff1234;stroke-width:1.2168;stroke-linecap:round;stroke-linejoin:round;stroke-miterlimit:8.4;stroke-opacity:0.337255"
       id="circle4279"
       cx="105.83813"
       cy="131.51408"
       r="45.508331" />
    <circle
       style="opacity:0;mix-blend-mode:multiply;fill:none;fill-opacity:0.337255;stroke:#ff1234;stroke-width:1.37669;stroke-linecap:round;stroke-linejoin:round;stroke-miterlimit:8.4;stroke-opacity:0.337255"
       id="path4282"
       cx="105.83813"
       cy="131.51408"
       r="33.178322" />
    <text
       xml:space="preserve"
       style="font-style:normal;font-variant:normal;font-weight:normal;font-stretch:normal;font-size:4.9389px;line-height:0.95;font-family:Poppins;-inkscape-font-specification:'Poppins, Normal';font-variant-ligatures:normal;font-variant-caps:normal;font-variant-numeric:normal;font-variant-east-asian:normal;word-spacing:0px;stroke-width:0.115538"
       id="text4282"
       inkscape:export-filename="email.svg"
       inkscape:export-xdpi="300"
       inkscape:export-ydpi="300"><textPath
         xlink:href="#circle4282"
         id="textPath4282"
         style="stroke-width:0.115538"><tspan
           id="tspan4282"
           style="font-style:normal;font-variant:normal;font-weight:normal;font-stretch:normal;font-size:4.9389px;font-family:Poppins;-inkscape-font-specification:'Poppins, Normal';font-variant-ligatures:normal;font-variant-caps:normal;font-variant-numeric:normal;font-variant-east-asian:normal;stroke-width:0.115538">awxcreatives@gmail.com</tspan></textPath></text>
    <path
       style="fill:#000000;stroke-width:0.125887"
       d="m 78.752456,115.4123 c -0.0029,-0.003 -0.0053,-0.59385 -0.0053,-1.31311 v -1.30775 h 0.405574 0.405577 v 1.31311 1.3131 h -0.400222 c -0.22012,0 -0.402632,-0.002 -0.405577,-0.005 z m 1.263581,-1.30775 v -1.31311 h 0.373449 0.373454 l 8.8e-5,0.18673 8.9e-5,0.18672 0.02183,-0.0281 c 0.102362,-0.13189 0.270806,-0.2524 0.453223,-0.32424 0.02947,-0.0116 0.09271,-0.0309 0.140547,-0.043 0.07962,-0.02 0.100195,-0.0219 0.243572,-0.0221 0.172226,-1.7e-4 0.234363,0.009 0.360085,0.0534 0.172138,0.0607 0.356359,0.19543 0.443077,0.32392 0.07347,0.10886 0.138295,0.25449 0.174857,0.3928 l 0.02141,0.081 0.0024,0.90953 0.0024,0.90954 H 82.228939 81.83136 l -0.0021,-0.78103 -0.0021,-0.78104 -0.02199,-0.0649 c -0.0407,-0.12003 -0.115604,-0.20892 -0.218903,-0.25977 -0.08023,-0.0395 -0.140523,-0.0519 -0.249002,-0.0514 -0.222261,0.001 -0.377124,0.0907 -0.463667,0.26817 -0.06988,0.14328 -0.06549,0.0838 -0.06843,0.92501 l -0.0026,0.7449 h -0.393215 -0.393216 z m -0.97178,-1.7193 c -0.245456,-0.0645 -0.393994,-0.30431 -0.341593,-0.55159 0.02692,-0.12701 0.127987,-0.2564 0.245441,-0.3142 0.273804,-0.13475 0.599892,0.0229 0.662318,0.32028 0.01516,0.0723 0.01503,0.1108 -5.29e-4,0.18707 -0.02857,0.13882 -0.122224,0.26093 -0.246655,0.3216 -0.03623,0.0177 -0.08502,0.036 -0.108429,0.0408 -0.05823,0.0119 -0.157128,0.01 -0.210426,-0.004 z"
       id="path4285" />
    <text
       xml:space="preserve"
       style="font-style:normal;font-variant:normal;font-weight:normal;font-stretch:normal;font-size:4.9389px;line-height:0.95;font-family:Poppins;-inkscape-font-specification:'Poppins, Normal';font-variant-ligatures:normal;font-variant-caps:normal;font-variant-numeric:normal;font-variant-east-asian:normal;word-spacing:0px;stroke-width:0.264583"
       id="text4289"><textPath
         xlink:href="#path4289"
         id="textPath4289"
         style="stroke-width:0.264583"><tspan
           id="tspan4289"
           style="stroke-width:0.264583">projects  #  projects  #  projects  #  projects  #  projects  #  projects  #  projects  #  projects  #  projects  #  projects  #  projects  #  projects  #  projects  #  projects  #  projects  #  projects  #  projects  #  projects  #  projects  #  projects  #  projects  #  projects  #  projects  #  projects  #  projects  #  projects  #  projects  #  projects  #  projects  #  projects  #  projects  #  projects  #  projects  #  projects  #   </tspan></textPath></text>
  </g>
</svg>
