<?xml version="1.0" encoding="UTF-8" standalone="no"?>
<!-- Created with Inkscape (http://www.inkscape.org/) -->

<svg
   width="4.2556753mm"
   height="4.3854804mm"
   viewBox="0 0 4.2556753 4.3854804"
   version="1.1"
   id="svg1"
   xmlns:inkscape="http://www.inkscape.org/namespaces/inkscape"
   xmlns:sodipodi="http://sodipodi.sourceforge.net/DTD/sodipodi-0.dtd"
   xmlns:xlink="http://www.w3.org/1999/xlink"
   xmlns="http://www.w3.org/2000/svg"
   xmlns:svg="http://www.w3.org/2000/svg">
  <sodipodi:namedview
     id="namedview1"
     pagecolor="#505050"
     bordercolor="#eeeeee"
     borderopacity="1"
     inkscape:showpageshadow="0"
     inkscape:pageopacity="0"
     inkscape:pagecheckerboard="0"
     inkscape:deskcolor="#d1d1d1"
     inkscape:document-units="mm" />
  <defs
     id="defs1" />
  <g
     inkscape:label="Layer 1"
     inkscape:groupmode="layer"
     id="layer1"
     transform="translate(-105.40491,-97.759809)">
    <path
       id="path4290"
       style="opacity:0;fill:none;fill-opacity:0.337255;stroke:#ff1234;stroke-width:1.42879;stroke-linecap:round;stroke-linejoin:round;stroke-miterlimit:8.4;stroke-opacity:0.337255"
       d="M 105.83813,-23.084752 A 154.16596,154.59873 0 0 0 -48.327655,131.51408 154.16596,154.59873 0 0 0 105.83813,286.1129 154.16596,154.59873 0 0 0 260.0039,131.51408 154.16596,154.59873 0 0 0 105.83813,-23.084752 Z m 0,68.102301 a 86.254166,86.496294 0 0 1 86.25416,86.496531 86.254166,86.496294 0 0 1 -86.25416,86.49653 86.254166,86.496294 0 0 1 -86.254169,-86.49653 86.254166,86.496294 0 0 1 86.254169,-86.496531 z" />
    <ellipse
       style="opacity:0;fill:none;fill-opacity:0.337255;stroke:#ff1234;stroke-width:1.05197;stroke-linecap:round;stroke-linejoin:round;stroke-miterlimit:8.4;stroke-opacity:0.337255"
       id="path4289"
       cx="105.83813"
       cy="131.51408"
       rx="159.89973"
       ry="159.12192" />
    <text
       xml:space="preserve"
       style="font-style:normal;font-variant:normal;font-weight:normal;font-stretch:normal;font-size:5.36223px;line-height:0.95;font-family:Poppins;-inkscape-font-specification:'Poppins, Normal';font-variant-ligatures:normal;font-variant-caps:normal;font-variant-numeric:normal;font-variant-east-asian:normal;word-spacing:0px;stroke-width:0.0794427"
       id="text4288"><textPath
         xlink:href="#path4288"
         id="textPath4288"
         style="stroke-width:0.0794427"><tspan
           id="tspan4288"
           style="font-style:normal;font-variant:normal;font-weight:normal;font-stretch:normal;font-size:5.36223px;font-family:Poppins;-inkscape-font-specification:'Poppins, Normal';font-variant-ligatures:normal;font-variant-caps:normal;font-variant-numeric:normal;font-variant-east-asian:normal;stroke-width:0.0794427">logo design  |  illustrations  |  motion graphics  |  ui/ux design  |  package design |  animations  |  branding design  |  icon desgin  |  print design  |  infographic desgin |  and more.  |</tspan></textPath></text>
    <path
       id="circle4282"
       style="opacity:0;fill:none;fill-opacity:0.337255;stroke:#ff1234;stroke-width:1.37669;stroke-linecap:round;stroke-linejoin:round;stroke-miterlimit:8.4;stroke-opacity:0.337255"
       d="m 79.147109,150.78037 a 33.178321,33.178321 0 0 0 46.072041,7.75992 33.178321,33.178321 0 0 0 8.10199,-46.01311 z"
       inkscape:transform-center-x="-12.686583"
       inkscape:transform-center-y="28.247578" />
    <text
       xml:space="preserve"
       style="font-style:normal;font-variant:normal;font-weight:normal;font-stretch:normal;font-size:4.9389px;line-height:0.95;font-family:Poppins;-inkscape-font-specification:'Poppins, Normal';font-variant-ligatures:normal;font-variant-caps:normal;font-variant-numeric:normal;font-variant-east-asian:normal;word-spacing:0px;stroke-width:0.0497705"
       id="text4279"
       transform="rotate(-81.74517,105.87429,131.85266)"><textPath
         xlink:href="#circle4279"
         id="textPath4281"
         style="stroke-width:0.0497705"><tspan
           id="tspan4280"
           style="font-style:normal;font-variant:normal;font-weight:normal;font-stretch:normal;font-size:4.9389px;font-family:Poppins;-inkscape-font-specification:'Poppins, Normal';font-variant-ligatures:normal;font-variant-caps:normal;font-variant-numeric:normal;font-variant-east-asian:normal;stroke-width:0.0497705">We craft and execute strategic, visually compelling solutions enhancing brands and communication effectively.</tspan></textPath></text>
    <circle
       style="opacity:0;fill:none;fill-opacity:0.337255;stroke:#ff1234;stroke-width:1.32292;stroke-linecap:round;stroke-linejoin:round;stroke-miterlimit:8.4;stroke-opacity:0.337255"
       id="path4288"
       cx="105.40414"
       cy="132.19693"
       r="75.803123" />
    <circle
       style="opacity:0;fill:none;stroke:#ff1234;stroke-width:1.2168;stroke-linecap:round;stroke-linejoin:round;stroke-miterlimit:8.4;stroke-opacity:0.337255"
       id="circle4279"
       cx="105.83813"
       cy="131.51408"
       r="45.508331" />
    <circle
       style="opacity:0;mix-blend-mode:multiply;fill:none;fill-opacity:0.337255;stroke:#ff1234;stroke-width:1.37669;stroke-linecap:round;stroke-linejoin:round;stroke-miterlimit:8.4;stroke-opacity:0.337255"
       id="path4282"
       cx="105.83813"
       cy="131.51408"
       r="33.178322" />
    <text
       xml:space="preserve"
       style="font-style:normal;font-variant:normal;font-weight:normal;font-stretch:normal;font-size:4.9389px;line-height:0.95;font-family:Poppins;-inkscape-font-specification:'Poppins, Normal';font-variant-ligatures:normal;font-variant-caps:normal;font-variant-numeric:normal;font-variant-east-asian:normal;word-spacing:0px;stroke-width:0.115538"
       id="text4282"
       inkscape:export-filename="email.svg"
       inkscape:export-xdpi="300"
       inkscape:export-ydpi="300"><textPath
         xlink:href="#circle4282"
         id="textPath4282"
         style="stroke-width:0.115538"><tspan
           id="tspan4282"
           style="font-style:normal;font-variant:normal;font-weight:normal;font-stretch:normal;font-size:4.9389px;font-family:Poppins;-inkscape-font-specification:'Poppins, Normal';font-variant-ligatures:normal;font-variant-caps:normal;font-variant-numeric:normal;font-variant-east-asian:normal;stroke-width:0.115538">awxcreatives@gmail.com</tspan></textPath></text>
    <path
       style="fill:#000000;stroke-width:0.101559"
       d="m 105.43419,102.11133 c 0.0159,-0.0187 0.36955,-0.43169 0.78595,-0.91776 0.41639,-0.48606 0.77874,-0.90931 0.80522,-0.94054 l 0.0481,-0.0568 -0.83428,-1.212505 -0.83427,-1.212509 0.60448,-0.0061 c 0.33246,-0.0033 0.61483,-0.0021 0.62748,0.0028 0.0126,0.0049 0.26777,0.366626 0.56693,0.803895 0.29916,0.437271 0.55413,0.794863 0.5666,0.794654 0.0125,-1.64e-4 0.33212,-0.361791 0.71036,-0.803518 l 0.6877,-0.803132 h 0.16919 c 0.12956,0 0.1651,0.0066 0.15173,0.02833 -0.01,0.01558 -0.36206,0.429157 -0.78324,0.919057 -0.42117,0.4899 -0.76577,0.900007 -0.76577,0.911352 0,0.01135 0.37053,0.558996 0.82339,1.217006 0.45286,0.658 0.83992,1.22187 0.86013,1.25303 l 0.0367,0.0567 -0.62783,-0.007 -0.62783,-0.007 -0.20514,-0.29936 c -0.65672,-0.95833 -0.92446,-1.34513 -0.94895,-1.37098 -0.022,-0.0233 -0.17523,0.14257 -0.76412,0.82723 l -0.73655,0.85632 h -0.17248 c -0.15103,0 -0.16888,-0.004 -0.1436,-0.034 z m 3.68004,-0.26281 c -0.004,-0.0159 -0.59305,-0.88109 -1.30979,-1.922736 l -1.30316,-1.893895 -0.27763,-1.6e-5 c -0.1527,-8e-6 -0.27763,0.0093 -0.27763,0.02056 0,0.0181 2.43259,3.567177 2.57715,3.759997 l 0.0563,0.0751 0.2707,-0.005 c 0.2055,-0.004 0.2691,-0.012 0.26408,-0.0339 z"
       id="path4286" />
    <text
       xml:space="preserve"
       style="font-style:normal;font-variant:normal;font-weight:normal;font-stretch:normal;font-size:4.9389px;line-height:0.95;font-family:Poppins;-inkscape-font-specification:'Poppins, Normal';font-variant-ligatures:normal;font-variant-caps:normal;font-variant-numeric:normal;font-variant-east-asian:normal;word-spacing:0px;stroke-width:0.264583"
       id="text4289"><textPath
         xlink:href="#path4289"
         id="textPath4289"
         style="stroke-width:0.264583"><tspan
           id="tspan4289"
           style="stroke-width:0.264583">projects  #  projects  #  projects  #  projects  #  projects  #  projects  #  projects  #  projects  #  projects  #  projects  #  projects  #  projects  #  projects  #  projects  #  projects  #  projects  #  projects  #  projects  #  projects  #  projects  #  projects  #  projects  #  projects  #  projects  #  projects  #  projects  #  projects  #  projects  #  projects  #  projects  #  projects  #  projects  #  projects  #  projects  #   </tspan></textPath></text>
  </g>
</svg>
